<svg xmlns="http://www.w3.org/2000/svg" viewBox="0 0 512 512">
  <defs>
    <radialGradient id="bg" cx="50%" cy="50%" r="60%">
      <stop offset="0%" stop-color="#1a2340"/>
      <stop offset="100%" stop-color="#0a0e1a"/>
    </radialGradient>
  </defs>
  <rect width="512" height="512" fill="url(#bg)"/>
  <!-- Stars -->
  <g fill="white">
    <circle cx="60" cy="80" r="2" opacity="0.9"/>
    <circle cx="450" cy="100" r="2" opacity="0.7"/>
    <circle cx="100" cy="430" r="1.5" opacity="0.8"/>
    <circle cx="420" cy="450" r="2" opacity="0.6"/>
    <circle cx="380" cy="200" r="1" opacity="0.9"/>
    <circle cx="80" cy="200" r="1" opacity="0.6"/>
    <circle cx="450" cy="350" r="1.5" opacity="0.5"/>
    <circle cx="200" cy="60" r="1" opacity="0.7"/>
    <circle cx="300" cy="450" r="1" opacity="0.7"/>
  </g>
  <!-- Impostor character, centered -->
  <g transform="translate(256 256) scale(6) translate(-32 -32)">
    <rect x="11" y="22" width="9" height="22" rx="3" fill="#8B1A1A" stroke="#5C0F0F" stroke-width="1.5"/>
    <path d="M22 22 Q22 12 32 12 Q44 12 44 22 V42 Q47 42 47 48 V58 H39 V52 H26 V58 H18 V48 Q18 42 22 42 Z" fill="#E74C3C" stroke="#8B1A1A" stroke-width="2"/>
    <path d="M27 18 Q24 18 24 22 V27 Q24 30 27 30 H42 Q45 30 45 27 V22 Q45 18 42 18 Z" fill="#7BC9E8" stroke="#1F4E5F" stroke-width="1.5"/>
    <ellipse cx="40" cy="22" rx="2.5" ry="1.5" fill="#fff" opacity="0.7"/>
  </g>
</svg>
